<svg width="346" height="74" viewBox="0 0 346 74" fill="none" xmlns="http://www.w3.org/2000/svg">
<path d="M47.1846 45.2292C54.2873 45.2293 60.8903 47.392 66.4014 51.1062C66.8932 51.4361 67.0816 52.0799 66.8457 52.6296C61.4785 65.1979 49.1799 73.9861 34.8623 73.9861C27.7596 73.986 21.1565 71.8243 15.6455 68.1101C15.1537 67.7802 14.9663 67.1364 15.2021 66.5867C20.5692 54.0184 32.867 45.2294 47.1846 45.2292ZM8.77539 14.9363C9.25534 14.3868 10.0993 14.3866 10.5791 14.9363C16.0381 21.2041 19.3535 29.4479 19.3535 38.4851C19.3534 47.5221 16.038 55.7652 10.5791 62.033C10.0992 62.5827 9.25533 62.5826 8.77539 62.033V62.0369C3.31637 55.769 7.03399e-05 47.5262 0 38.489C3.07798e-05 29.4517 3.31631 21.2082 8.77539 14.9363ZM102.896 17.2986C106.427 17.2986 109.666 17.9747 112.609 19.3308C115.553 20.687 117.973 22.5891 119.864 25.0408C121.756 27.4925 122.936 30.254 123.396 33.3289H111.11C110.494 31.712 109.486 30.4618 108.078 29.574C106.671 28.6904 104.967 28.2459 102.972 28.2458C100.976 28.2459 99.4394 28.665 98.0557 29.4958C96.6721 30.3307 95.6008 31.5162 94.833 33.0554C94.0652 34.5949 93.6807 36.4079 93.6807 38.489C93.6807 40.57 94.0652 42.3863 94.833 43.9216C95.6008 45.4609 96.6762 46.6463 98.0557 47.4812C99.4394 48.3161 101.076 48.7322 102.972 48.7322C104.867 48.7321 106.59 48.2751 108.002 47.363C109.41 46.4508 110.446 45.1596 111.114 43.4939H123.399C122.939 46.6217 121.76 49.4115 119.868 51.8591C117.973 54.3108 115.542 56.2256 112.574 57.6062C109.607 58.9868 106.379 59.6794 102.899 59.6794H102.896C98.8002 59.6794 95.1124 58.7667 91.8369 56.9421C88.5616 55.1176 86.0019 52.5887 84.1582 49.3591C82.3146 46.1296 81.3946 42.5046 81.3945 38.489C81.3946 34.4734 82.3146 30.8526 84.1582 27.6189C86.0018 24.3853 88.5616 21.8604 91.8369 20.0359C95.1124 18.2113 98.8002 17.2986 102.896 17.2986ZM190.461 17.2908C193.38 17.2908 195.952 17.9175 198.18 19.1677C199.463 19.8886 200.547 20.6507 201.531 21.6648C202.291 22.4465 203.591 21.9126 203.591 20.8171V18.2312H214.877V58.739H203.591V56.1931C203.591 55.1098 202.295 54.5473 201.551 55.321C200.571 56.3433 199.464 57.1463 198.216 57.8386C196.016 59.0645 193.428 59.6755 190.461 59.6755V59.6794C187.238 59.6794 184.23 58.8201 181.438 57.0974C178.647 55.3788 176.419 52.9023 174.76 49.6687C173.096 46.4391 172.264 42.7083 172.264 38.4851C172.264 34.2618 173.096 30.5352 174.76 27.3015C176.423 24.0678 178.651 21.5915 181.438 19.8728C184.23 18.1542 187.238 17.2908 190.461 17.2908ZM291.521 17.2986C295.668 17.2986 299.391 18.199 302.694 19.9949C305.998 21.795 308.569 24.3081 310.413 27.5417C312.257 30.7754 313.177 34.4246 313.177 38.489C313.177 42.5534 312.257 46.1902 310.413 49.3953C308.569 52.6005 305.998 55.1176 302.694 56.9421C299.391 58.7666 295.668 59.6794 291.521 59.6794C287.373 59.6794 283.662 58.7666 280.387 56.9421C277.111 55.1176 274.54 52.6005 272.668 49.3953C270.8 46.1901 269.864 42.5534 269.864 38.489C269.864 34.4248 270.784 30.7878 272.627 27.5828C274.471 24.3775 277.043 21.8605 280.347 20.0359C283.65 18.2114 287.373 17.2986 291.521 17.2986ZM334.233 17.0134C334.233 17.6894 334.77 18.2351 335.434 18.2351H343.832V28.0095H335.434C334.77 28.0095 334.233 28.5561 334.233 29.2322V43.572C334.233 45.0868 334.617 46.2315 335.385 47.0134C336.153 47.7954 337.281 48.1863 338.765 48.1863V48.1902H345.751V58.7468H336.077C333.21 58.7468 330.738 58.2094 328.666 57.1423C326.595 56.0713 325.007 54.4949 323.907 52.4099C322.803 50.3247 322.255 47.7416 322.255 44.6667V29.2322C322.255 28.5562 321.719 28.0097 321.056 28.0095H314.192V18.2351H321.056C321.719 18.235 322.255 17.6894 322.255 17.0134V8.3064H334.233V17.0134ZM139.949 20.3816C139.949 21.4566 141.213 22.0064 141.977 21.2615C143.012 20.2515 144.137 19.5345 145.477 18.8992C147.728 17.8322 150.183 17.2947 152.847 17.2947C155.97 17.2947 158.63 17.9581 160.834 19.2898C163.034 20.6175 164.726 22.5363 165.901 25.0369C167.077 27.5373 167.669 30.5633 167.669 34.1062V58.739H155.69V36.0613C155.69 33.6097 155.062 31.6958 153.811 30.3152C152.555 28.9347 150.803 28.242 148.552 28.2419C146.912 28.242 145.44 28.6205 144.137 29.3738C142.833 30.1313 141.805 31.1625 141.065 32.4617C140.322 33.7649 139.953 35.2511 139.953 36.9167V58.7341H127.976L127.972 58.7429V8.3064H139.949V20.3816ZM221.124 58.7429L221.12 58.739H221.124V58.7429ZM264.909 58.7429H252.931V18.2351H264.909V58.7429ZM248.304 29.0242H242.085C239.322 29.0242 237.133 29.8711 235.518 31.5652C233.906 33.2594 233.098 35.6175 233.098 38.6433V58.739H221.124V18.2351H232.41V21.8757C232.41 22.6699 233.426 23.0042 233.862 22.3445C234.63 21.1922 235.586 20.2025 236.785 19.4451C238.597 18.3048 240.881 17.6853 243.696 17.6853H248.304V29.0242ZM193.836 27.8552C191.94 27.8553 190.292 28.287 188.885 29.1462C187.477 30.0055 186.402 31.2319 185.662 32.8201C184.918 34.4124 184.55 36.2981 184.55 38.489C184.55 40.68 184.922 42.5697 185.662 44.158C186.402 45.7502 187.477 46.9725 188.885 47.8318C190.292 48.691 191.944 49.1227 193.836 49.1228C195.628 49.1228 197.216 48.6911 198.596 47.8318C199.979 46.9724 201.039 45.7463 201.783 44.158C202.523 42.5697 202.895 40.68 202.896 38.489C202.895 36.2981 202.523 34.4124 201.783 32.8201C201.039 31.2318 199.979 30.0056 198.596 29.1462C197.212 28.2869 195.624 27.8552 193.836 27.8552ZM291.521 28.2458C289.629 28.2459 287.977 28.6651 286.569 29.4958C285.162 30.3307 284.074 31.5161 283.306 33.0554C282.538 34.5949 282.154 36.4079 282.154 38.489C282.154 40.5699 282.538 42.3864 283.306 43.9216C284.074 45.461 285.162 46.6463 286.569 47.4812C287.977 48.3161 289.629 48.7322 291.521 48.7322C293.412 48.7322 295.064 48.3161 296.472 47.4812C297.879 46.6463 298.968 45.461 299.735 43.9216C300.503 42.3864 300.887 40.5739 300.887 38.489C300.887 36.4038 300.503 34.5908 299.735 33.0554C298.967 31.5202 297.879 30.3307 296.472 29.4958C295.064 28.6651 293.412 28.2459 291.521 28.2458ZM34.8623 2.98706C52.4594 2.98706 67.0092 16.2643 69.3809 33.5203C69.4448 34.0008 69.2213 34.4779 68.8135 34.7263C63.6028 37.8824 57.5199 39.6977 51.0176 39.698C33.4177 39.6967 18.8695 26.42 16.498 9.16479C16.4343 8.68444 16.6577 8.20807 17.0654 7.95972C22.2765 4.80344 28.3595 2.98714 34.8623 2.98706ZM258.922 0.645264C260.813 0.645308 262.378 1.26043 263.605 2.48218C264.833 3.70792 265.448 5.23118 265.448 7.05542C265.448 8.87989 264.833 10.4079 263.605 11.6296C262.378 12.8555 260.813 13.4665 258.922 13.4666C257.026 13.4666 255.466 12.8554 254.238 11.6296C253.011 10.4038 252.395 8.87992 252.395 7.05542C252.395 5.23115 253.011 3.70793 254.238 2.48218C255.466 1.25641 257.03 0.645264 258.922 0.645264Z" fill="#062949"></path>
</svg>